<svg xmlns="http://www.w3.org/2000/svg" width="720" height="460" viewBox="0 0 360 230" role="img" aria-label="A little paper character sits on a gym bench with legs dangling, a folded towel beside it."><style>.paper{fill:#fff}.blue{fill:#97acc8}.gray{fill:#b6bfc1}.seam{stroke-width:.8;stroke-opacity:.4;fill:none}.ground{stroke:#b6bfc1;stroke-width:1;fill:none}.piece{filter:url(#edge)}path,ellipse,circle{vector-effect:non-scaling-stroke}.pause-feet{transform-origin:163px 155px;animation:feet 8s ease-in-out infinite}@keyframes feet{0%,25%,100%{transform:rotate(0)}55%{transform:rotate(4deg)}75%{transform:rotate(-1deg)}}@media(prefers-reduced-motion:reduce){*{animation:none!important}}</style><defs><filter id="edge" x="-30%" y="-30%" width="170%" height="180%"><feDropShadow dx="1.3" dy="2" stdDeviation="1" flood-color="#051230" flood-opacity=".13"/></filter><g id="head"><path class="paper" d="M-10-5C-15-14-7-23 3-22 15-22 18-12 11-5 5 1-4 1-10-5Z"/><path d="m4-14 .2 .6m6 0 .2 .6"/></g><g id="disc"><path class="blue" d="M-10-1C-11-19-6-31 1-30 9-30 12-17 12 0 13 18 8 30 0 30-7 30-11 17-10-1Z"/><path class="seam" d="M2-23Q10-1 2 23"/></g><g id="stack"><path class="paper" d="M-14-36 13-36 15 33-15 33Z"/><path class="seam" d="M-13-25h27m-27 11h27m-27 11h27m-27 11h27m-27 11h27"/><path d="M0-42v77" class="seam"/></g></defs><g stroke="#051230" stroke-width="1.65" stroke-linecap="round" stroke-linejoin="round" fill="none"><path class="ground" d="M58 202q100-3 242 0"/><g class="piece"><path class="paper" d="M99 151q85-3 165 0v10H98Z"/><path d="m112 162-6 36h9l8-36m119 0 7 36h9l-7-36"/><path class="blue" d="m220 147 31-2 3 33-15 1-1-22-18 1Z"/><path class="seam" d="m242 174 9-1"/><g class="pause-feet"><path class="paper" d="M148 146Q138 152 140 166L142 185Q129 189 135 196C139 200 151 198 156 193Q159 189 157 178L157 165 168 158Z"/><path class="paper" d="M165 147Q183 150 184 163L182 184Q195 190 190 196C185 200 175 195 170 191Q167 188 169 176L169 166 159 159Z"/></g>
<path class="paper" d="M148 103C135 107 131 123 134 138 137 153 149 159 163 157 179 158 190 146 186 131 183 114 171 100 160 102Z"/>
<path class="paper" d="M143 118Q132 133 132 146L139 151Q147 153 144 157C139 163 128 155 126 150Q122 136 134 119 M176 121Q184 132 190 145L198 149Q205 154 198 157C191 160 183 151 180 145L169 128"/>
<g transform="translate(159 103) rotate(8)"><use href="#head"/></g>
</g></g></svg>